<svg xmlns="http://www.w3.org/2000/svg" viewBox="0 0 944.87 634.53"><title>icon-syntropic</title><g id="Capa_2" data-name="Capa 2"><g id="Capa_1-2" data-name="Capa 1"><path d="M14.54,190.68c4.95-2.27,9.87-3,15-1.37a18.31,18.31,0,0,1,9.53,6.93,18.58,18.58,0,0,1-.76,22.52c-5.7,7-14.3,8.53-24,4.23.76,2.29,1.58,4.46,2.18,6.68a13.54,13.54,0,0,1,.06,7.12c-.61,2.3-1.43,4.54-2.17,6.85,10.79-4.69,20-2.89,26.15,7.9,3.94,6.94,2.22,15.82-3.45,21.44-6.18,6.12-14.35,6.95-23.9,2.14,3.52,5.83,4.4,11.62,1.77,17.77-.27-.8-.58-1.59-.79-2.4C11.32,279.76,8.74,269,6.66,258.08a9.17,9.17,0,0,1,.9-6.9,6.31,6.31,0,0,0,.38-.88c0-.05,0-.13-.09-.39l-2.41,1A364.15,364.15,0,0,1,.88,214.36c1.52.44,2.67.69,3.76,1.1S6.78,216.41,8,217c-3.35-9.8-3.36-11-.19-19.4L.14,200.09a234.33,234.33,0,0,1,1.61-38.2C4,161.78,5.67,163.1,8,164c-1.58-3.41-2.66-6.61-2.59-10.08a22.63,22.63,0,0,1,3-10.1l-4.11,1.9c4.56-22.2,11.9-42.89,23.56-62.27C34.26,85,38.81,88.65,41.09,94.74c2.77,7.34,1.45,14.18-4.17,19.65-6.88,6.7-14.83,7-23.29,2.64a21.65,21.65,0,0,1,3,10.65,20,20,0,0,1-3.21,10.82c11-5.11,20.13-3.64,26.63,6.66,4.2,6.66,3,15.49-2.29,21.41-5.71,6.42-13.7,7.73-23.64,3.63C17.83,177.1,18,183.82,14.54,190.68Z"/><path d="M67.93,233.71A17.58,17.58,0,1,1,50.75,215.8,17.47,17.47,0,0,1,67.93,233.71Z"/><path d="M67.93,127.74a17.58,17.58,0,0,1-35.15.24,17.58,17.58,0,1,1,35.15-.24Z"/><path d="M67.93,180.6a17.58,17.58,0,1,1-35.15-.12,17.58,17.58,0,0,1,35.15.12Z"/><path d="M67.93,286.11a17.58,17.58,0,0,1-35.15.3,17.58,17.58,0,1,1,35.15-.3Z"/><path d="M50.34,92.5A17.39,17.39,0,0,1,33,77.12a3.43,3.43,0,0,1,.52-2.18,134.64,134.64,0,0,1,12.86-16,4.64,4.64,0,0,1,3.6-1.5,17.54,17.54,0,1,1,.36,35.08Z"/><path d="M93.36,154.14a16.61,16.61,0,0,1-33.22.11,16.61,16.61,0,1,1,33.22-.11Z"/><path d="M93.36,207a16.61,16.61,0,0,1-33.22,0,16.61,16.61,0,1,1,33.22,0Z"/><path d="M93.36,259.7a16.61,16.61,0,0,1-33.22.2,16.61,16.61,0,1,1,33.22-.2Z"/><path d="M93.36,101.43a16.61,16.61,0,0,1-33.22-.06,16.61,16.61,0,1,1,33.22.06Z"/><path d="M93.36,312.94a16.61,16.61,0,0,1-33.22-.69,16.61,16.61,0,1,1,33.22.69Z"/><path d="M93.36,48.54a16.63,16.63,0,1,1-33.24-.64,4,4,0,0,1,1.74-3.44c5.34-3.79,10.66-7.59,16-11.45a3.79,3.79,0,0,1,3.62-.38A16.57,16.57,0,0,1,93.36,48.54Z"/><path d="M118.72,127.9a15.44,15.44,0,0,1-15.59,15.46,15.6,15.6,0,1,1,15.59-15.46Z"/><path d="M118.72,233.36A15.44,15.44,0,0,1,103.26,249a15.6,15.6,0,1,1,15.46-15.6Z"/><path d="M118.72,339.12a15.44,15.44,0,0,1-15.62,15.44,15.6,15.6,0,1,1,15.62-15.44Z"/><path d="M118.72,75a15.44,15.44,0,0,1-15.45,15.61A15.61,15.61,0,0,1,87.53,74.93a15.6,15.6,0,0,1,31.19,0Z"/><path d="M118.72,286.15a15.44,15.44,0,0,1-15.45,15.61,15.61,15.61,0,0,1-15.74-15.64,15.77,15.77,0,0,1,15.65-15.56A15.61,15.61,0,0,1,118.72,286.15Z"/><path d="M118.72,180.51a15.44,15.44,0,0,1-15.41,15.65,15.61,15.61,0,0,1-15.78-15.6A15.77,15.77,0,0,1,103.14,165,15.61,15.61,0,0,1,118.72,180.51Z"/><path d="M129.31,380a14.63,14.63,0,0,1,0-29.25A14.79,14.79,0,0,1,144,365.41,14.63,14.63,0,0,1,129.31,380Z"/><path d="M144.1,48.6a14.57,14.57,0,0,1-29.13,0,14.57,14.57,0,1,1,29.13,0Z"/><path d="M144.1,259.74a14.56,14.56,0,0,1-29.12.13,14.56,14.56,0,1,1,29.12-.13Z"/><path d="M129.56,327.15a14.57,14.57,0,1,1,14.54-14.42A14.58,14.58,0,0,1,129.56,327.15Z"/><path d="M144.1,207A14.57,14.57,0,0,1,115,207a14.57,14.57,0,1,1,29.13,0Z"/><path d="M144.1,101.35a14.56,14.56,0,0,1-29.12.11,14.56,14.56,0,1,1,29.12-.11Z"/><path d="M144.1,154.26a14.57,14.57,0,0,1-29.13-.11,14.57,14.57,0,1,1,29.13.11Z"/><path d="M27.38,330.35c-2.28-4.49-10.59-29.27-11.38-34,4.54-3.33,13.05-2.76,18.66,1.26a18.32,18.32,0,0,1,6.84,20.4C39.41,324.74,33.07,330.26,27.38,330.35Z"/><path d="M169.52,127.71a13.57,13.57,0,1,1-13.66-13.49A13.56,13.56,0,0,1,169.52,127.71Z"/><path d="M169.52,22.21A13.57,13.57,0,1,1,156,8.62,13.55,13.55,0,0,1,169.52,22.21Z"/><path d="M169.52,339.08A13.57,13.57,0,1,1,156,325.42,13.55,13.55,0,0,1,169.52,339.08Z"/><path d="M155.89,88.57a13.58,13.58,0,1,1,13.63-13.5A13.58,13.58,0,0,1,155.89,88.57Z"/><path d="M155.91,194.17a13.58,13.58,0,1,1,13.61-13.52A13.58,13.58,0,0,1,155.91,194.17Z"/><path d="M169.52,233.4A13.57,13.57,0,1,1,156,219.82,13.55,13.55,0,0,1,169.52,233.4Z"/><path d="M155.91,299.77a13.58,13.58,0,1,1,13.61-13.52A13.58,13.58,0,0,1,155.91,299.77Z"/><path d="M169.89,48.7a12.34,12.34,0,0,1,12.37-12.56A12.5,12.5,0,1,1,169.89,48.7Z"/><path d="M169.89,312.57a12.35,12.35,0,0,1,12.49-12.43,12.49,12.49,0,0,1,12.5,12.5,12.62,12.62,0,0,1-12.56,12.49A12.49,12.49,0,0,1,169.89,312.57Z"/><path d="M169.89,154.18a12.34,12.34,0,0,1,12.48-12.44,12.5,12.5,0,1,1-12.48,12.44Z"/><path d="M182.31,88.94a12.49,12.49,0,0,1,12.57,12.43,12.62,12.62,0,0,1-12.49,12.56,12.49,12.49,0,0,1-12.5-12.49A12.34,12.34,0,0,1,182.31,88.94Z"/><path d="M194.57,365.45a12.48,12.48,0,0,1-12.51,12.48,12.62,12.62,0,0,1-12.48-12.57,12.49,12.49,0,0,1,12.57-12.42A12.35,12.35,0,0,1,194.57,365.45Z"/><path d="M169.89,206.94a12.34,12.34,0,0,1,12.53-12.4,12.5,12.5,0,1,1-12.53,12.4Z"/><path d="M169.89,259.71a12.35,12.35,0,0,1,12.56-12.37,12.49,12.49,0,0,1,12.43,12.56,12.62,12.62,0,0,1-12.63,12.43A12.49,12.49,0,0,1,169.89,259.71Z"/><path d="M88.33,26.72a192.86,192.86,0,0,1,27.89-13.11c3.14,5.32,3.46,10.62.65,16a15.51,15.51,0,0,1-28.54-2.89Z"/><path d="M208.65,169.19a11.42,11.42,0,1,1-11.31,11.56A11.43,11.43,0,0,1,208.65,169.19Z"/><path d="M197.34,22.25a11.41,11.41,0,1,1,11.51,11.37A11.39,11.39,0,0,1,197.34,22.25Z"/><path d="M197.34,74.79a11.41,11.41,0,1,1,11.25,11.63A11.39,11.39,0,0,1,197.34,74.79Z"/><path d="M197.34,286.07a11.41,11.41,0,1,1,11.33,11.55A11.38,11.38,0,0,1,197.34,286.07Z"/><path d="M197.34,127.85a11.41,11.41,0,1,1,11.51,11.37A11.39,11.39,0,0,1,197.34,127.85Z"/><path d="M219.9,339.32a11.41,11.41,0,1,1-11.14-11.72A11.42,11.42,0,0,1,219.9,339.32Z"/><path d="M208.79,222a11.41,11.41,0,1,1-11.45,11.41A11.41,11.41,0,0,1,208.79,222Z"/><path d="M235.23,322.86a10.3,10.3,0,0,1-10.42-10.28A10.46,10.46,0,0,1,235,302.27a10.3,10.3,0,0,1,10.36,10.35A10.17,10.17,0,0,1,235.23,322.86Z"/><path d="M245.39,48.53a10.16,10.16,0,0,1-10.31,10.33,10.29,10.29,0,0,1-10.27-10.19,10.44,10.44,0,0,1,10.37-10.4A10.3,10.3,0,0,1,245.39,48.53Z"/><path d="M234.79,375.66a10.18,10.18,0,0,1-10.15-10.49A10.3,10.3,0,0,1,235,355.07a10.46,10.46,0,0,1,10.21,10.32A10.29,10.29,0,0,1,234.79,375.66Z"/><path d="M245.39,154.23A10.17,10.17,0,0,1,235,164.46a10.29,10.29,0,0,1-10.17-10.29A10.45,10.45,0,0,1,235,143.87,10.3,10.3,0,0,1,245.39,154.23Z"/><path d="M245.39,207a10.16,10.16,0,0,1-10.33,10.31A10.3,10.3,0,0,1,224.81,207a10.45,10.45,0,0,1,10.4-10.37A10.29,10.29,0,0,1,245.39,207Z"/><path d="M245.39,259.89a10.18,10.18,0,0,1-10.47,10.17,10.29,10.29,0,0,1-10.11-10.35,10.46,10.46,0,0,1,10.3-10.24A10.3,10.3,0,0,1,245.39,259.89Z"/><path d="M245.39,101.46A10.18,10.18,0,0,1,235,111.66a10.3,10.3,0,0,1-10.14-10.33,10.44,10.44,0,0,1,10.27-10.26A10.3,10.3,0,0,1,245.39,101.46Z"/><path d="M252.45,180.72a9,9,0,0,1,9-9.2,9.13,9.13,0,0,1,9.27,9,9.27,9.27,0,0,1-9,9.27A9.12,9.12,0,0,1,252.45,180.72Z"/><path d="M252.45,286.16a9,9,0,0,1,9.12-9,9.12,9.12,0,0,1,9.12,9.13,9.26,9.26,0,0,1-9.2,9.11A9.11,9.11,0,0,1,252.45,286.16Z"/><path d="M252.45,127.82a9,9,0,0,1,9.07-9.1,9.13,9.13,0,0,1,9.17,9.07,9.27,9.27,0,0,1-9.14,9.17A9.12,9.12,0,0,1,252.45,127.82Z"/><path d="M252.45,233.46a9,9,0,0,1,9-9.14,9.12,9.12,0,0,1,9.21,9,9.28,9.28,0,0,1-9.11,9.21A9.11,9.11,0,0,1,252.45,233.46Z"/><path d="M261.21,329.92a9,9,0,0,1,9.16,9,9.12,9.12,0,0,1-9,9.24,9.27,9.27,0,0,1-9.23-9.07A9.13,9.13,0,0,1,261.21,329.92Z"/><path d="M252.45,75a9,9,0,0,1,9.08-9.09A9.12,9.12,0,0,1,270.69,75a9.28,9.28,0,0,1-9.16,9.16A9.11,9.11,0,0,1,252.45,75Z"/><path d="M252.42,22.54a9.18,9.18,0,0,1,4.5-8.23,2.39,2.39,0,0,1,2.46-.22c3.19,1.42,6.4,2.8,9.62,4.17a2.44,2.44,0,0,1,1.44,2,8.68,8.68,0,0,1-3.16,9,8.52,8.52,0,0,1-9.62,1.19A8.72,8.72,0,0,1,252.42,22.54Z"/><path d="M295.79,154.25a7.78,7.78,0,0,1-8,7.82,7.92,7.92,0,0,1-7.83-7.8,8.08,8.08,0,0,1,7.93-8A7.92,7.92,0,0,1,295.79,154.25Z"/><path d="M295.79,259.7a7.79,7.79,0,0,1-7.83,8,7.91,7.91,0,0,1-8-7.89,8.07,8.07,0,0,1,7.78-7.92A7.92,7.92,0,0,1,295.79,259.7Z"/><path d="M295.79,312.72a7.78,7.78,0,0,1-8.06,7.75,7.91,7.91,0,0,1-7.75-7.88,8.07,8.07,0,0,1,8-7.93A7.91,7.91,0,0,1,295.79,312.72Z"/><path d="M295.79,207.12a7.79,7.79,0,0,1-8.06,7.75A7.92,7.92,0,0,1,280,207a8.07,8.07,0,0,1,8-7.93A7.91,7.91,0,0,1,295.79,207.12Z"/><path d="M295.79,48.62a7.78,7.78,0,0,1-8,7.85A7.92,7.92,0,0,1,280,48.7a8.08,8.08,0,0,1,7.9-8A7.92,7.92,0,0,1,295.79,48.62Z"/><path d="M287.66,373.27a7.77,7.77,0,0,1-7.84-8,7.91,7.91,0,0,1,7.77-7.85,8.07,8.07,0,0,1,8,7.91A7.9,7.9,0,0,1,287.66,373.27Z"/><path d="M295.79,101.33a7.78,7.78,0,0,1-7.86,7.94,7.91,7.91,0,0,1-7.95-7.92,8.08,8.08,0,0,1,7.81-7.89A7.91,7.91,0,0,1,295.79,101.33Z"/><path d="M314.06,332.33a6.58,6.58,0,0,1,6.69,6.66,6.73,6.73,0,0,1-6.67,6.76,6.87,6.87,0,0,1-6.75-6.73A6.72,6.72,0,0,1,314.06,332.33Z"/><path d="M307.64,74.89a6.58,6.58,0,0,1,6.79-6.56,6.72,6.72,0,0,1,6.63,6.79,6.88,6.88,0,0,1-6.85,6.63A6.74,6.74,0,0,1,307.64,74.89Z"/><path d="M307.65,127.62a6.57,6.57,0,0,1,6.86-6.49,6.73,6.73,0,0,1,6.55,6.86,6.88,6.88,0,0,1-6.93,6.56A6.72,6.72,0,0,1,307.65,127.62Z"/><path d="M307.64,180.56a6.58,6.58,0,0,1,6.72-6.63,6.72,6.72,0,0,1,6.7,6.72,6.87,6.87,0,0,1-6.78,6.7A6.74,6.74,0,0,1,307.64,180.56Z"/><path d="M307.64,286.15a6.58,6.58,0,0,1,6.74-6.62,6.72,6.72,0,0,1,6.68,6.73,6.87,6.87,0,0,1-6.8,6.69A6.73,6.73,0,0,1,307.64,286.15Z"/><path d="M307.64,233.34a6.58,6.58,0,0,1,6.74-6.61,6.73,6.73,0,0,1,6.68,6.74,6.87,6.87,0,0,1-6.8,6.68A6.73,6.73,0,0,1,307.64,233.34Z"/><path d="M193.69.4c-1.2,4.33-5.74,7.66-10.78,7.93S172.39,5,171.28,1.18C174.45.13,189.69-.13,193.69.4Z"/><path d="M346.12,207a5.38,5.38,0,0,1-5.56,5.37,5.42,5.42,0,1,1,5.56-5.37Z"/><path d="M346.12,312.57a5.38,5.38,0,0,1-5.49,5.44,5.42,5.42,0,1,1,5.49-5.44Z"/><path d="M346.12,154.28a5.39,5.39,0,0,1-5.6,5.33,5.42,5.42,0,1,1,5.6-5.33Z"/><path d="M346.12,101.45a5.38,5.38,0,0,1-5.57,5.36,5.42,5.42,0,1,1,5.57-5.36Z"/><path d="M340.83,265.21a5.42,5.42,0,1,1,5.29-5.4A5.37,5.37,0,0,1,340.83,265.21Z"/><path d="M371,180.53a3.93,3.93,0,1,1-7.85,0,3.88,3.88,0,0,1,3.78-3.88A3.92,3.92,0,0,1,371,180.53Z"/><path d="M371,286.18a4,4,0,0,1-4,4,3.93,3.93,0,1,1,4-4Z"/><path d="M371,127.78a4,4,0,0,1-4,4,3.92,3.92,0,0,1-3.88-4,3.93,3.93,0,0,1,7.85.07Z"/><path d="M371,233.43a4,4,0,0,1-4,3.91,3.92,3.92,0,0,1-3.82-4.08,3.86,3.86,0,0,1,3.88-3.77A3.91,3.91,0,0,1,371,233.43Z"/><path d="M396.07,259.76a2.5,2.5,0,0,1-2.49,2.61,2.61,2.61,0,0,1-2.71-2.43,2.77,2.77,0,0,1,2.65-2.78A2.64,2.64,0,0,1,396.07,259.76Z"/><path d="M396.07,207.09a2.51,2.51,0,0,1-2.61,2.49,2.65,2.65,0,0,1-2.6-2.56,2.77,2.77,0,0,1,2.78-2.65A2.64,2.64,0,0,1,396.07,207.09Z"/><path d="M396.07,154.16a2.5,2.5,0,0,1-2.49,2.61,2.63,2.63,0,0,1-2.72-2.43,2.78,2.78,0,0,1,2.66-2.78A2.65,2.65,0,0,1,396.07,154.16Z"/><path d="M138.77,6.82a13.76,13.76,0,0,1-11.26,3.42C128.93,9.06,133.35,7.66,138.77,6.82Z"/><path d="M37.46,354.84a11,11,0,0,1,3.58,6.4l-.51.24C39.5,359.27,38.48,357.05,37.46,354.84Z"/><path d="M421.62,180.8c-.85.47-1.39,1-1.8.93a1.75,1.75,0,0,1-1.13-1.16,1.05,1.05,0,0,1,1.37-1.16C420.53,179.53,420.89,180.12,421.62,180.8Z"/><path d="M420.07,284.43c.48.86,1,1.39.95,1.82a1.7,1.7,0,0,1-1.16,1.11A1,1,0,0,1,418.7,286C418.84,285.53,419.41,285.17,420.07,284.43Z"/><path d="M420.06,231.63c.49.86,1,1.39,1,1.82a1.7,1.7,0,0,1-1.16,1.11,1,1,0,0,1-1.16-1.34C418.84,232.73,419.41,232.37,420.06,231.63Z"/><path d="M944,212.92c-5.92,76.45-32.42,146.54-75.48,211.24a474.89,474.89,0,0,1-82.79,94.76C727.15,570.19,659.45,606,581.45,623.38a466.59,466.59,0,0,1-75,10.25,480,480,0,0,1-76.22-1.34c-94.65-9.56-180.9-39.71-255.85-96.08C106.1,484.86,55.12,421.3,25.82,343A336.12,336.12,0,0,1,6.58,263.92c-.25-2.05-.78-4.09-.21-6.58q3.43,4.67,6.77,9.07c4.87,6.45,9.61,12.49,14.3,18.18,29,35.19,55.44,56.39,94.27,70.46,16.75,6.06,35.8,10.79,58.35,14.75h.05a196.23,196.23,0,0,0,31.8.48,250.87,250.87,0,0,0,106.55-31.46c34.15-18.92,65-42,91.66-69.48,25.19-26,49.49-52.74,73.32-79.85C517.1,151.23,550.77,113,589.14,78.78,616.91,54.05,646.23,31,681.32,15.84,710,3.43,740-2.1,771.63.72Q830.09,5.9,876.5,39.55c27.8,20.14,45.58,47,56.4,78.22C943.63,148.74,946.53,180.74,944,212.92Z"/></g></g></svg>