<svg xmlns="http://www.w3.org/2000/svg" xmlns:xlink="http://www.w3.org/1999/xlink" viewBox="0 0 1064.62 1064.62"><defs><style>.cls-1{fill:#fff;}.cls-2{fill:url(#Degradado_sin_nombre_29);}</style><linearGradient id="Degradado_sin_nombre_29" x1="228.69" y1="449.18" x2="530.88" y2="449.18" gradientUnits="userSpaceOnUse"><stop offset="0" stop-color="#2b2b2b"/><stop offset="0.17" stop-color="#5f5f5f"/><stop offset="0.38" stop-color="#979797"/><stop offset="0.58" stop-color="#c4c4c4"/><stop offset="0.75" stop-color="#e4e4e4"/><stop offset="0.9" stop-color="#f8f8f8"/><stop offset="1" stop-color="#fff"/></linearGradient></defs><title>logo</title><g id="Capa_2" data-name="Capa 2"><g id="Capa_1-2" data-name="Capa 1"><rect class="cls-1" width="1064.62" height="1064.62"/><path class="cls-2" d="M530.88,460c-12.56,14.09-25.34,28-38.5,41.57a250.87,250.87,0,0,1-58.88,44.63A161,161,0,0,1,365,566.37a125.51,125.51,0,0,1-20.43-.3h0c-14.48-2.54-26.72-5.58-37.48-9.48-25-9-42-22.66-60.57-45.26-3-3.66-6.06-7.54-9.19-11.68-1.43-1.89-3.67-5-5.14-7,.31,1.77.63,3.35.78,4.33a264,264,0,0,1-3.76-28.47c-1.6-20.67.27-41.23,7.16-61.13s18.38-37.31,36.24-50.26A132.61,132.61,0,0,1,340,332.17a117.75,117.75,0,0,1,58,9.72c22.54,9.77,41.37,24.55,59.22,40.44,24.65,22,46.28,46.55,67.91,71.13C527.05,455.63,529,457.8,530.88,460Z"/><path d="M835.93,453.35h0q-.06,5.94-.53,11.91a266.9,266.9,0,0,1-4.63,33c-7.48,36.51-22.5,70.67-43.86,102.76a305,305,0,0,1-53.19,60.88,300.49,300.49,0,0,1-72.65,47.41A292,292,0,0,1,602.46,729a299.53,299.53,0,0,1-48.19,6.59,308.88,308.88,0,0,1-49-.86C444.5,728.56,389.09,709.19,340.93,673q-4.81-3.62-9.43-7.36l-.6-.52a304.62,304.62,0,0,1-53.18-60.87c-22.22-33.39-37.58-69-44.73-107.17a.17.17,0,0,1,0-.07c-.15-1-.44-1.68-.78-4.33,1.47,2,3.71,5.1,5.14,7,3.13,4.14,6.17,8,9.19,11.68,18.61,22.6,35.61,36.22,60.57,45.26,10.76,3.9,23,6.94,37.48,9.48h0a125.51,125.51,0,0,0,20.43.3,161,161,0,0,0,68.46-20.21,250.87,250.87,0,0,0,58.88-44.63c13.16-13.57,25.94-27.48,38.5-41.57.47.54,1,1.07,1.42,1.6q3.62-4.05,7.19-8.12c21.63-24.58,43.25-49.17,67.9-71.13,17.85-15.89,36.68-30.68,59.22-40.44,18.43-8,37.67-11.52,58-9.71A132.54,132.54,0,0,1,792,357.1c17.86,12.94,29.28,30.21,36.23,50.26A143.67,143.67,0,0,1,835.93,453.35Z"/><path d="M835.93,453.35a143.67,143.67,0,0,0-7.69-46c-7-20.05-18.37-37.32-36.23-50.26a132.54,132.54,0,0,0-67.38-24.94c-20.35-1.81-39.59,1.74-58,9.71-22.54,9.76-41.37,24.55-59.22,40.44-24.65,22-46.27,46.55-67.9,71.13q-3.59,4.08-7.19,8.12c-.47-.53-.95-1.06-1.42-1.6q4.32-4.84,8.61-9.73c21.63-24.58,43.25-49.17,67.9-71.14,17.85-15.88,36.68-30.67,59.22-40.43a117.66,117.66,0,0,1,58-9.72A132.56,132.56,0,0,1,792,353.89c17.86,12.94,29.28,30.21,36.23,50.26A144.81,144.81,0,0,1,835.93,453.35Z"/></g></g></svg>